<?xml version="1.0" ?><svg data-name="Layer 1" id="Layer_1" viewBox="0 0 32 32" xmlns="http://www.w3.org/2000/svg"><defs><style>.cls-1{fill:#ba63c6;}</style></defs><title/><path class="cls-1" d="M32,5.88c-.19-3-1.93-4.74-5-4.87H11C8,1,6.13,2.88,6,6V7H5C2,7,.13,8.88,0,12V26.08A4.78,4.78,0,0,0,4.87,31H21.13A4.86,4.86,0,0,0,26,26V25h1.13A4.86,4.86,0,0,0,32,20V6S32,5.92,32,5.88ZM20.93,27H5.07c-.93-.07-1-.29-1.07-1V12.09C4,11,4.34,11,5,11H20.91c.85,0,1,.12,1.09,1.07V25.91C22,26.67,21.81,26.93,20.93,27Zm6-6H26V12s0-.08,0-.12c-.19-3-1.93-4.74-5-4.87H10V6.09C10,5,10.34,5,11,5H26.91c.85,0,1,.12,1.09,1.07V19.91C28,20.67,27.81,20.93,26.93,21Z"/></svg>